<?xml version="1.0" encoding="UTF-8" standalone="no"?> <!-- Created with Vectornator for iOS (http://vectornator.io/) --><!DOCTYPE svg PUBLIC "-//W3C//DTD SVG 1.1//EN" "http://www.w3.org/Graphics/SVG/1.1/DTD/svg11.dtd">
<svg style="fill-rule:evenodd;clip-rule:evenodd;stroke-linecap:round;stroke-linejoin:round;" xmlns:vectornator="http://vectornator.io" xmlns:xlink="http://www.w3.org/1999/xlink" xmlns="http://www.w3.org/2000/svg" xml:space="preserve" version="1.1" viewBox="0 0 896.094 339.446">

<g id="Layer 2" vectornator:layerName="Layer 2">
<path d="M0+7.82741e-06L0+8.50001L0+148.344L0+169.375L0+339.719L117.312+339.719C117.313+339.719+235.972+340.631+235.969+244.219C235.967+189.143+198.039+165.591+165.469+155.469C188.353+143.897+208.876+123.045+208.875+85.3438C208.872+0.0102388+105.844+4.85175e-05+105.844+7.82741e-06L0+7.82741e-06ZM785.969+7.82741e-06C675.982+0.0698196+675.969+89.5313+675.969+89.5313L675.969+250.469C675.969+250.469+675.982+339.93+785.969+340C786.012+340+786.051+340+786.094+340C896.08+339.93+896.094+250.469+896.094+250.469L859+249.625C857.283+259.476+856.555+312.701+786.063+312.656C720.498+312.615+722.969+238.875+722.969+238.875L722.969+101.156C722.969+101.156+715.948+24.7813+786+24.875C850.278+24.961+856.92+73.0225+859.375+91.9375L896.094+89.5313C896.094+89.5313+896.08+0.069832+786.094+7.82741e-06C786.051-1.94264e-05+786.012+3.54624e-05+785.969+7.82741e-06ZM321.094+6.15626C296.241+6.15623+276.094+24.1587+276.094+46.3438C276.094+68.529+296.241+86.5001+321.094+86.5C345.947+86.5+366.094+68.5289+366.094+46.3438C366.094+41.626+365.017+37.1429+363.344+32.9375L499.094+32.9375L326.094+336.469C326.094+336.469+569.268+336.469+571.094+336.469C595.947+336.469+616.094+318.466+616.094+296.281C616.094+274.096+595.947+256.125+571.094+256.125C546.241+256.125+526.094+274.096+526.094+296.281C526.094+300.978+527.028+305.498+528.688+309.688L396.094+309.688L566.094+6.15626C566.094+6.15626+322.925+6.15626+321.094+6.15626ZM576.094+6.15626L559.094+238.25L606.094+238.25L606.094+6.15626L576.094+6.15626ZM105.406+25.5C105.406+25.5+166.529+25.4853+166.531+85.2188C166.533+144.952+104.031+144.375+104.031+144.375L42.3438+144.031L42.3438+25.8438C42.3438+25.6543+105.406+25.5+105.406+25.5ZM321.094+26.5C332.139+26.5+337.094+36.4837+337.094+46.3438C337.094+56.2039+332.139+66.1874+321.094+66.1875C310.048+66.1875+305.094+56.2039+305.094+46.3438C305.094+36.4837+310.048+26.5001+321.094+26.5ZM286.094+113.281L286.094+336.469L316.094+336.469L333.094+113.281L286.094+113.281ZM77.9375+174.344L115+174.344C115+174.344+131.05+174.347+148.906+180.25C171.278+187.646+186.499+204.311+186.5+241.844C186.503+309.332+113.469+309.625+113.469+309.625L37.7812+308.656C37.5155+308.656+42.3438+309.495+42.3438+309.281L42.3438+174.719C42.3438+174.505+77.9375+174.344+77.9375+174.344ZM571.094+276.438C582.139+276.438+587.094+286.421+587.094+296.281C587.094+306.141+582.14+316.125+571.094+316.125C560.048+316.125+556.094+306.141+556.094+296.281C556.094+286.421+560.048+276.438+571.094+276.438Z" opacity="1" fill="#38b97b"/>
</g>
</svg>
